# xmcd CD database file
# Copyright (C) 1995-1998 Ti Kan
#
# Track frame offsets:
#	150
#	13797
#	28097
#	43927
#	54477
#	71697
#	86732
#	101705
#	113570
#	126707
#	138540
#	159740
#	178975
#	196070
#	209977
#	223060
#	234637
#	251200
#	265092
#	281612
#
# Disc length: 3967 seconds
#
# Revision: 1
# Processed by: cddbd v1.4b41PL1 Copyright (c) Steve Scherf et al.
# Submitted via: CDex 1.30
#
DISCID=460f7d14
DTITLE=Various Artist - Classic Country
DYEAR=1995
DGENRE=Country
TTITLE0=I will always love you
TTITLE1=I love a rainy night
TTITLE2=My Tennessee mountain home
TTITLE3=Release me
TTITLE4=Don't forget to remember
TTITLE5=Little ways
TTITLE6=Jambalaya
TTITLE7=Shotgun Willie
TTITLE8=I'm for love
TTITLE9=My Dixie darlin'
TTITLE10=The wind beneath my wings
TTITLE11=Sam Stone
TTITLE12=An American trilogy
TTITLE13=A little unfair
TTITLE14=Thirty-nine and holding
TTITLE15=The danger of a stranger
TTITLE16=Don't think twice, it's all right
TTITLE17=Wonderful tonight
TTITLE18=Love hurts
TTITLE19=Forever and ever Amen
EXTD=\n\nYEAR: 1995  ID3G:   2
EXTT0=
EXTT1=
EXTT2=
EXTT3=
EXTT4=
EXTT5=
EXTT6=
EXTT7=
EXTT8=
EXTT9=
EXTT10=
EXTT11=
EXTT12=
EXTT13=
EXTT14=
EXTT15=
EXTT16=
EXTT17=
EXTT18=
EXTT19=
PLAYORDER=
